Coordinates
version=1
nRows=8
nColumns=40
inDegrees=yes

Units are S.I. units (second, meters, Newtons, ...)
Angles are in degrees.

endheader
time	pelvis_tilt	pelvis_list	pelvis_rotation	pelvis_tx	pelvis_ty	pelvis_tz	hip_flexion_r	hip_adduction_r	hip_rotation_r	knee_angle_r	knee_angle_r_beta	ankle_angle_r	subtalar_angle_r	mtp_angle_r	hip_flexion_l	hip_adduction_l	hip_rotation_l	knee_angle_l	knee_angle_l_beta	ankle_angle_l	subtalar_angle_l	mtp_angle_l	lumbar_extension	lumbar_bending	lumbar_rotation	arm_flex_r	arm_add_r	arm_rot_r	elbow_flex_r	pro_sup_r	wrist_flex_r	wrist_dev_r	arm_flex_l	arm_add_l	arm_rot_l	elbow_flex_l	pro_sup_l	wrist_flex_l	wrist_dev_l
     17.47000000	     -6.74736569	     -4.36581728	     -2.41853075	      0.82262125	      0.92212792	      0.48790488	     22.72742221	      2.33993874	    -11.70776455	     18.32389241	     18.32389241	      3.88714310	     -1.49792661	     -3.49660026	     13.28726706	    -10.30441968	     -4.38611655	     45.21602683	     45.21602683	      9.75729194	    -16.57749310	     -7.74664684	     -9.70240571	      7.10251016	      1.15033782	     -0.54174518	    -12.62507919	     -4.89338088	     35.58067762	     45.98898674	      0.00000000	      0.00000000	     13.86290298	    -10.41820459	     -4.89860227	     51.59863116	     46.79384454	      0.00000000	      0.00000000
     17.48314286	     -6.56931971	     -4.48885149	     -2.24289389	      0.82326436	      0.92283403	      0.49059093	     22.02900397	      2.57324589	    -11.93809255	     18.35648731	     18.35648731	      4.33410607	     -1.39638892	     -3.67423568	     14.98349113	    -10.73625786	     -3.38525354	     48.80488564	     48.80488564	      8.01869753	    -17.08724134	     -7.24231351	     -9.94719808	      7.14577366	      1.25043956	      1.32641905	    -12.70830113	     -4.70845499	     36.80974796	     45.94118834	      0.00000000	      0.00000000	     12.89512720	     -9.99029591	     -4.60128751	     50.49829401	     46.74574824	      0.00000000	      0.00000000
     17.49628571	     -6.56083882	     -4.62648952	     -2.01894408	      0.82364656	      0.92309738	      0.49303862	     21.51581774	      2.79366847	    -12.24214866	     18.36815430	     18.36815430	      4.80530442	     -1.22409561	     -3.87673986	     16.95611427	    -11.03384279	     -2.12193090	     52.26927432	     52.26927432	      6.65908807	    -17.41845927	     -6.09687577	     -9.86432493	      7.28064426	      0.93682313	      3.12558513	    -12.78454634	     -4.31638173	     38.49780365	     45.86265943	      0.00000000	      0.00000000	     11.86832923	     -9.73486080	     -4.27606632	     48.70063035	     46.68702232	      0.00000000	      0.00000000
     17.50942857	     -6.46346298	     -4.58296725	     -1.89034319	      0.82372888	      0.92353146	      0.49539465	     21.00647252	      2.80287154	    -12.53087855	     18.53759004	     18.53759004	      5.36519509	     -0.77941831	     -3.98354284	     18.93668579	    -10.96241697	     -0.85320353	     55.75710811	     55.75710811	      7.86621650	    -16.58231451	      1.00669814	     -9.96348498	      7.15310203	      1.61971024	      3.45970862	    -14.07207303	     -0.69103800	     43.38756900	     45.47686594	      0.00000000	      0.00000000	     12.52921876	     -8.89400038	     -3.63493515	     43.74889330	     46.58048578	      0.00000000	      0.00000000
     17.52257143	     -6.43304227	     -4.71504472	     -1.74423015	      0.82357864	      0.92377690	      0.49791356	     20.52368303	      3.06335187	    -12.69119205	     18.57516158	     18.57516158	      5.76721517	     -0.74411448	     -4.05590209	     20.71686622	    -11.20160596	      0.18892384	     58.25244711	     58.25244711	      6.83007099	    -16.66844597	      1.59438534	    -10.02406295	      7.14149711	      1.48474525	      5.53221869	    -14.11205687	     -0.58311684	     44.87620708	     45.42969612	      0.00000000	      0.00000000	     11.37626124	     -8.67129590	     -3.40683724	     42.58219962	     46.53277256	      0.00000000	      0.00000000
     17.53571429	     -6.37030970	     -4.77879639	     -1.60001643	      0.82317671	      0.92407804	      0.50025860	     20.08972625	      3.22428736	    -12.85439337	     18.75571340	     18.75571340	      6.37298712	     -0.61553346	     -3.76924791	     22.48847579	    -11.28883368	      1.17999947	     60.43709901	     60.43709901	      7.15823148	    -16.32568378	      4.91252521	    -10.15112644	      7.08570450	      1.71344044	      6.95828341	    -14.83039664	      1.12543146	     47.92947022	     45.25735355	      0.00000000	      0.00000000	     11.07817073	     -8.21234696	     -3.14654045	     39.68181205	     46.46976671	      0.00000000	      0.00000000
     17.54885714	     -6.38798762	     -4.84171163	     -1.46755593	      0.82253279	      0.92431843	      0.50263646	     19.69397986	      3.43463093	    -12.87800790	     18.78444239	     18.78444239	      6.78845762	     -0.68834778	     -3.75710660	     24.15008523	    -11.40417683	      2.00719014	     61.80721468	     61.80721468	      6.71893492	    -16.47376442	      5.35316418	    -10.17345887	      6.96056558	      1.54259689	      9.18485380	    -14.77732217	      1.12052532	     49.53462650	     45.21547310	      0.00000000	      0.00000000	      9.95093820	     -8.07787190	     -2.99885781	     38.41413288	     46.42821737	      0.00000000	      0.00000000
     17.56200000	     -6.35326269	     -4.88384295	     -1.38346930	      0.82171300	      0.92467885	      0.50487284	     19.25609499	      3.62328763	    -12.86565025	     18.81343915	     18.81343915	      7.16299878	     -0.74159950	     -3.79918522	     25.63442151	    -11.55225725	      2.56639986	     62.55364302	     62.55364302	      6.43708664	    -16.77816290	      5.56372680	    -10.31465086	      6.83133335	      1.94503366	     11.37732522	    -15.02086654	      1.00850604	     50.72278985	     45.19085475	      0.00000000	      0.00000000	      9.02110084	     -7.71524126	     -2.86754318	     37.60426753	     46.39545427	      0.00000000	      0.00000000
